<?xml version="1.0" standalone="no"?><!DOCTYPE svg PUBLIC "-//W3C//DTD SVG 1.1//EN" "http://www.w3.org/Graphics/SVG/1.1/DTD/svg11.dtd"><svg width="200" height="200" viewBox="0 0 200 200" version="1.1" xmlns="http://www.w3.org/2000/svg" xmlns:xlink="http://www.w3.org/1999/xlink"><defs><style type="text/css"><![CDATA[
@font-face { font-family: ifont; src: url(http://at.alicdn.com/t/font_1442373896_4754455.eot?#iefix) format(embedded-opentype), url(http://at.alicdn.com/t/font_1442373896_4754455.woff) format(woff), url(http://at.alicdn.com/t/font_1442373896_4754455.ttf) format(truetype), url(http://at.alicdn.com/t/font_1442373896_4754455.svg#ifont) format(svg); }

]]></style></defs><g class="transform-group"><g transform="scale(0.1953125, 0.1953125)"><path d="M396.561067 674.429156c0.091022-0.182044 0.113778-0.022756 0.2048-0.295822-0.159289-0.546133-0.250311-0.477867-0.364089-0.659911L396.561067 674.429156zM512 79.644444c-238.774044 0-432.355556 193.581511-432.355556 432.355556s193.581511 432.355556 432.355556 432.355556 432.355556-193.581511 432.355556-432.355556S750.774044 79.644444 512 79.644444zM512 898.844444c-213.651911 0-386.844444-173.192533-386.844444-386.844444s173.192533-386.844444 386.844444-386.844444 386.844444 173.192533 386.844444 386.844444S725.651911 898.844444 512 898.844444zM699.050667 487.924622l0.2048 0.136533c4.050489 2.616889 6.508089 4.369067 6.872178 4.937956l-6.872178-4.937956C656.634311 460.504178 428.4416 329.955556 420.977778 329.955556c-7.099733 0-13.198222 3.458844-17.385244 8.556089-2.798933 2.753422-6.394311 10.558578-7.486578 14.631822-1.251556 4.573867-0.796444 316.848356 0.637156 320.989867 3.254044 12.151467 19.319467 21.7088 31.470933 18.454756 2.844444-0.955733 5.370311-2.412089 7.600356-4.346311l263.964444-151.529244c10.581333-2.844444 16.952889-12.765867 16.361244-23.278933C716.731733 502.875022 709.632 490.769067 699.050667 487.924622zM443.733333 632.945778 443.733333 393.8304l208.258844 119.580444L443.733333 632.945778z" fill="#ecf0f1"></path></g></g></svg>