<?xml version="1.0" standalone="no"?><!DOCTYPE svg PUBLIC "-//W3C//DTD SVG 1.1//EN" "http://www.w3.org/Graphics/SVG/1.1/DTD/svg11.dtd"><svg width="200" height="200" viewBox="0 0 200 200" version="1.1" xmlns="http://www.w3.org/2000/svg" xmlns:xlink="http://www.w3.org/1999/xlink"><defs><style type="text/css"><![CDATA[
@font-face { font-family: ifont; src: url(http://at.alicdn.com/t/font_1442373896_4754455.eot?#iefix) format(embedded-opentype), url(http://at.alicdn.com/t/font_1442373896_4754455.woff) format(woff), url(http://at.alicdn.com/t/font_1442373896_4754455.ttf) format(truetype), url(http://at.alicdn.com/t/font_1442373896_4754455.svg#ifont) format(svg); }

]]></style></defs><g class="transform-group"><g transform="scale(0.1953125, 0.1953125)"><path d="M511.886925 959.336258c-246.668982 0-447.332165-200.664206-447.332165-447.339328 0-246.666936 200.663182-447.331141 447.332165-447.331141 246.674099 0 447.337281 200.664206 447.337281 447.331141C959.224206 758.672052 758.561024 959.336258 511.886925 959.336258L511.886925 959.336258zM511.886925 128.857786c-211.267704 0-383.14119 171.872462-383.14119 383.139144 0 211.239052 171.872462 383.146307 383.14119 383.146307 211.238029 0 383.145283-171.907255 383.145283-383.146307C895.032208 300.730249 723.124953 128.857786 511.886925 128.857786L511.886925 128.857786zM556.878628 513.372254l138.163733-136.661519c12.554944-12.393261 12.652158-32.621978 0.25378-45.175899-12.398378-12.56006-32.656771-12.657274-45.182039-0.25992L511.760035 468.099141 375.518071 331.435575c-12.495592-12.490475-32.69054-12.558014-45.182039-0.062422-12.495592 12.4608-12.525268 32.685423-0.063445 45.181015l136.052652 136.466068L329.151044 648.723941c-12.554944 12.431124-12.652158 32.621978-0.25378 45.181015 6.260587 6.328126 14.475689 9.487072 22.720468 9.487072 8.112772 0 16.23066-3.095501 22.461571-9.233292l137.363508-135.858224 138.480958 138.928143c6.230911 6.261611 14.412244 9.391904 22.62223 9.391904 8.181333 0 16.327874-3.130294 22.558785-9.327436 12.491499-12.461823 12.525268-32.655747 0.064468-45.181015L556.878628 513.372254 556.878628 513.372254zM556.878628 513.372254" fill="#56abe4"></path></g></g></svg>