<?xml version="1.0" standalone="no"?><!DOCTYPE svg PUBLIC "-//W3C//DTD SVG 1.1//EN" "http://www.w3.org/Graphics/SVG/1.1/DTD/svg11.dtd"><svg width="200" height="200" viewBox="0 0 200 200" version="1.1" xmlns="http://www.w3.org/2000/svg" xmlns:xlink="http://www.w3.org/1999/xlink"><defs><style type="text/css"><![CDATA[
@font-face { font-family: ifont; src: url(http://at.alicdn.com/t/font_1442373896_4754455.eot?#iefix) format(embedded-opentype), url(http://at.alicdn.com/t/font_1442373896_4754455.woff) format(woff), url(http://at.alicdn.com/t/font_1442373896_4754455.ttf) format(truetype), url(http://at.alicdn.com/t/font_1442373896_4754455.svg#ifont) format(svg); }

]]></style></defs><g class="transform-group"><g transform="scale(0.1953125, 0.1953125)"><path d="M527.527648 942.826236c-247.307525 0-447.783443-200.475917-447.783443-447.784466 0-247.315712 200.475917-447.792653 447.783443-447.792653 247.316735 0 447.832562 200.476941 447.832562 447.792653C975.36021 742.350318 774.844384 942.826236 527.527648 942.826236M527.527648 103.002932c-216.506009 0-392.030651 175.516456-392.030651 392.038838 0 216.506009 175.524642 392.030651 392.030651 392.030651 216.515219 0 392.038838-175.524642 392.038838-392.030651C919.566486 278.519388 744.042867 103.002932 527.527648 103.002932M634.547057 525.948687c-3.582595 3.399423-5.081739 7.974625-4.151553 12.872169l20.294209 106.048291c1.074472 5.506411-1.000793 10.692526-5.538133 13.978363-4.504594 3.27765-10.067286 3.614317-14.948457 0.913812l-94.620008-52.099588c-4.352121-2.363837-9.16166-2.363837-13.505595 0l-94.620008 52.099588c-4.880147 2.700505-10.44284 2.363837-14.956643-0.913812-4.503571-3.285836-6.5553-8.471952-5.529947-13.978363l20.294209-106.048291c0.929162-4.897543-0.577145-9.473769-4.15974-12.872169l-78.764901-73.884754c-4.088108-3.814886-5.466502-9.233292-3.743254-14.540158 1.715061-5.26491 6.03546-8.855692 11.558244-9.5454l107.170858-13.465686c4.889357-0.618077 8.824993-3.439332 10.916631-7.942903l45.917796-97.738022c2.364861-5.04183 7.093559-8.055466 12.664438-8.055466 5.579065 0 10.307763 3.01466 12.672624 8.055466l45.917796 97.738022c2.13257 4.503571 6.027274 7.324826 10.942213 7.942903l107.170858 13.465686c5.490038 0.689708 9.810437 4.28049 11.55722 9.5454 1.723248 5.305843 0.321318 10.725272-3.726881 14.540158L634.547057 525.948687z" fill="#11cd6e"></path></g></g></svg>