<?xml version="1.0" standalone="no"?><!DOCTYPE svg PUBLIC "-//W3C//DTD SVG 1.1//EN" "http://www.w3.org/Graphics/SVG/1.1/DTD/svg11.dtd"><svg width="202.34375" height="200" viewBox="0 0 202.34375 200" version="1.1" xmlns="http://www.w3.org/2000/svg" xmlns:xlink="http://www.w3.org/1999/xlink"><defs><style type="text/css"><![CDATA[
@font-face { font-family: ifont; src: url(http://at.alicdn.com/t/font_1442373896_4754455.eot?#iefix) format(embedded-opentype), url(http://at.alicdn.com/t/font_1442373896_4754455.woff) format(woff), url(http://at.alicdn.com/t/font_1442373896_4754455.ttf) format(truetype), url(http://at.alicdn.com/t/font_1442373896_4754455.svg#ifont) format(svg); }

]]></style></defs><g class="transform-group"><g transform="scale(0.1953125, 0.1953125)"><path d="M954.924522 163.216696c-53.693217-53.158957-125.284174-79.961043-196.541217-79.961043-67.094261 0-133.854609 23.774609-184.943304 71.769043-21.481739 18.432-37.064348 32.790261-49.753043 32.790261-13.534609 0-25.466435-13.512348-49.619478-32.790261-54.650435-48.261565-121.366261-72.036174-187.503304-72.036174-70.455652 0-140.221217 27.002435-193.958957 80.228174-108.098783 106.985739-108.098783 289.903304 0 396.889043l389.988174 376.987826c7.791304 7.769043 25.399652 13.022609 43.119304 13.022609 14.959304 0 29.96313-3.762087 39.17913-12.955826l390.054957-377.054609C1062.956522 453.12 1062.956522 270.180174 954.924522 163.216696zM923.981913 528.072348 534.661565 904.414609c-1.313391 0.467478-4.318609 1.157565-8.97113 1.157565-6.299826 0-11.50887-1.313391-13.913043-2.203826L123.904 528.450783c-43.141565-42.674087-67.873391-103.468522-67.873391-166.800696 0-63.309913 24.731826-124.104348 67.895652-166.800696 43.831652-43.430957 101.576348-67.33913 162.615652-67.33913 57.433043 0 113.552696 21.615304 158.029913 60.883478l0.845913 0.734609 0.868174 0.712348c5.342609 4.229565 10.039652 8.192 14.291478 11.753739 18.765913 15.805217 36.507826 30.72 63.087304 30.72 28.249043 0 49.441391-18.253913 73.97287-39.401739l4.786087-4.140522 0.75687-0.645565 0.734609-0.667826c40.982261-38.489043 95.855304-59.703652 154.468174-59.703652 61.929739 0 122.145391 24.442435 165.197913 67.072 43.119304 42.696348 67.82887 103.468522 67.82887 166.800696S966.700522 485.776696 923.981913 528.072348zM290.637913 190.642087c-26.37913-3.049739-80.072348 6.722783-119.629913 46.302609-31.944348 31.855304-51.422609 78.046609-52.112696 123.592348-0.178087 12.310261 9.638957 22.416696 21.926957 22.617043 0.111304 0 0.222609 0 0.356174 0 12.132174 0 22.060522-9.750261 22.26087-21.926957 0.512-34.214957 15.11513-68.897391 39.045565-92.783304 28.961391-28.983652 69.142261-35.149913 82.988522-33.569391 12.132174 1.513739 23.262609-7.323826 24.687304-19.522783C311.585391 203.130435 302.83687 192.044522 290.637913 190.642087z" fill="#ecf0f1"></path></g></g></svg>