<?xml version="1.0" standalone="no"?><!DOCTYPE svg PUBLIC "-//W3C//DTD SVG 1.1//EN" "http://www.w3.org/Graphics/SVG/1.1/DTD/svg11.dtd"><svg width="200" height="200" viewBox="0 0 200 200" version="1.1" xmlns="http://www.w3.org/2000/svg" xmlns:xlink="http://www.w3.org/1999/xlink"><defs><style type="text/css"><![CDATA[
@font-face { font-family: ifont; src: url(http://at.alicdn.com/t/font_1442373896_4754455.eot?#iefix) format(embedded-opentype), url(http://at.alicdn.com/t/font_1442373896_4754455.woff) format(woff), url(http://at.alicdn.com/t/font_1442373896_4754455.ttf) format(truetype), url(http://at.alicdn.com/t/font_1442373896_4754455.svg#ifont) format(svg); }

]]></style></defs><g class="transform-group"><g transform="scale(0.1953125, 0.1953125)"><path d="M106.483196 177.706331c-23.173792 0-41.959647 18.783809-41.959647 41.959647 0 23.173792 18.786878 41.959647 41.959647 41.959647s41.959647-18.786878 41.959647-41.959647C148.442844 196.49014 129.656989 177.706331 106.483196 177.706331zM106.483196 485.414505c-23.173792 0-41.959647 18.786878-41.959647 41.959647s18.786878 41.959647 41.959647 41.959647 41.959647-18.786878 41.959647-41.959647S129.656989 485.414505 106.483196 485.414505zM106.483196 765.148557c-23.173792 0-41.959647 18.786878-41.959647 41.959647 0 23.175839 18.786878 41.962717 41.959647 41.962717s41.959647-18.786878 41.959647-41.962717C148.442844 783.934412 129.656989 765.148557 106.483196 765.148557zM945.69047 177.706331 302.296931 177.706331c-7.724938 0-13.985526 6.261611-13.985526 13.985526l0 27.974122c0 7.724938 6.261611 13.985526 13.985526 13.985526l643.392516 0c7.724938 0 13.985526-6.261611 13.985526-13.985526l0-27.974122C959.675996 183.967942 953.414385 177.706331 945.69047 177.706331zM945.69047 485.414505 302.296931 485.414505c-7.724938 0-13.985526 6.261611-13.985526 13.985526l0 27.974122c0 7.724938 6.261611 13.985526 13.985526 13.985526l643.392516 0c7.724938 0 13.985526-6.261611 13.985526-13.985526l0-27.974122C959.675996 491.676116 953.414385 485.414505 945.69047 485.414505zM945.69047 765.148557 302.296931 765.148557c-7.724938 0-13.985526 6.263657-13.985526 13.988596l0 27.971052c0 7.726985 6.261611 13.988596 13.985526 13.988596l643.392516 0c7.724938 0 13.985526-6.261611 13.985526-13.988596l0-27.971052C959.675996 771.412215 953.414385 765.148557 945.69047 765.148557z" fill="#ecf0f1"></path></g></g></svg>