<?xml version="1.0" standalone="no"?><!DOCTYPE svg PUBLIC "-//W3C//DTD SVG 1.1//EN" "http://www.w3.org/Graphics/SVG/1.1/DTD/svg11.dtd"><svg width="200.1953125" height="200" viewBox="0 0 200.1953125 200" version="1.1" xmlns="http://www.w3.org/2000/svg" xmlns:xlink="http://www.w3.org/1999/xlink"><defs><style type="text/css"><![CDATA[
@font-face { font-family: ifont; src: url(http://at.alicdn.com/t/font_1442373896_4754455.eot?#iefix) format(embedded-opentype), url(http://at.alicdn.com/t/font_1442373896_4754455.woff) format(woff), url(http://at.alicdn.com/t/font_1442373896_4754455.ttf) format(truetype), url(http://at.alicdn.com/t/font_1442373896_4754455.svg#ifont) format(svg); }

]]></style></defs><g class="transform-group"><g transform="scale(0.1953125, 0.1953125)"><path d="M715.137485 512.017069c0 6.486198-2.543272 13.091879-7.493266 17.939459l-253.303107 253.456728c-10.0024 9.951193-26.14962 9.951193-36.049607 0-9.951193-9.951193-9.951193-26.047206 0-35.947193l235.34658-235.431924L418.291506 276.602214c-9.951193-9.899987-9.951193-26.047206 0-35.9984 10.0024-9.899987 26.047206-9.899987 36.049607 0l253.303107 253.405521C712.594213 499.010535 715.137485 505.513802 715.137485 512.017069zM1024.085345 512.017069c0 282.337378-229.69676 512.085345-512.051207 511.982931C229.747966 1024.102414 0 794.354447 0 512.017069 0 229.645553 229.747966 0 512.034138 0 794.388585 0 1024.085345 229.645553 1024.085345 512.017069zM50.933724 512.017069c0 254.276037 206.841446 461.083344 461.100413 461.083344 254.293106 0 461.15162-206.790239 461.15162-461.083344 0-254.310175-206.841446-461.066276-461.15162-461.066276C257.792239 50.950793 50.933724 257.706894 50.933724 512.017069z" fill="#56abe4"></path></g></g></svg>