<?xml version="1.0" standalone="no"?><!DOCTYPE svg PUBLIC "-//W3C//DTD SVG 1.1//EN" "http://www.w3.org/Graphics/SVG/1.1/DTD/svg11.dtd"><svg width="200.1953125" height="200" viewBox="0 0 200.1953125 200" version="1.1" xmlns="http://www.w3.org/2000/svg" xmlns:xlink="http://www.w3.org/1999/xlink"><defs><style type="text/css"><![CDATA[
@font-face { font-family: ifont; src: url(http://at.alicdn.com/t/font_1442373896_4754455.eot?#iefix) format(embedded-opentype), url(http://at.alicdn.com/t/font_1442373896_4754455.woff) format(woff), url(http://at.alicdn.com/t/font_1442373896_4754455.ttf) format(truetype), url(http://at.alicdn.com/t/font_1442373896_4754455.svg#ifont) format(svg); }

]]></style></defs><g class="transform-group"><g transform="scale(0.1953125, 0.1953125)"><path d="M605.763827 240.574073c-9.900747-9.959401-25.995326-9.959401-36.00165 0L316.436787 494.051964c-4.950373 4.90345-7.449022 11.402282-7.449022 17.948036 0 6.557485 2.498648 12.997663 7.507675 18.00669l253.266737 253.430967c9.959401 9.900747 26.06571 9.900747 36.00165 0 10.006324-9.959401 10.006324-26.112633 0-36.048573l-235.3187-235.377354 235.3187-235.424277C615.75842 266.628053 615.75842 250.521743 605.763827 240.574073zM512.046923 0C229.676213-0.105577 0 229.676213 0 512s229.676213 512 512.046923 512c282.323787 0 512.046923-229.676213 512.046923-512S794.382441-0.105577 512.046923 0zM512.046923 973.100307c-254.275581 0-461.14723-206.812995-461.14723-461.100307 0-254.275581 206.871649-461.14723 461.14723-461.14723 254.287312 0 461.100307 206.871649 461.100307 461.14723C973.14723 766.287312 766.334235 973.100307 512.046923 973.100307z" fill="#56abe4"></path></g></g></svg>