<?xml version="1.0" standalone="no"?><!DOCTYPE svg PUBLIC "-//W3C//DTD SVG 1.1//EN" "http://www.w3.org/Graphics/SVG/1.1/DTD/svg11.dtd"><svg width="200" height="200" viewBox="0 0 200 200" version="1.1" xmlns="http://www.w3.org/2000/svg" xmlns:xlink="http://www.w3.org/1999/xlink"><defs><style type="text/css"><![CDATA[
@font-face { font-family: ifont; src: url(http://at.alicdn.com/t/font_1442373896_4754455.eot?#iefix) format(embedded-opentype), url(http://at.alicdn.com/t/font_1442373896_4754455.woff) format(woff), url(http://at.alicdn.com/t/font_1442373896_4754455.ttf) format(truetype), url(http://at.alicdn.com/t/font_1442373896_4754455.svg#ifont) format(svg); }

]]></style></defs><g class="transform-group"><g transform="scale(0.1953125, 0.1953125)"><path d="M920.32 299.52c0-1.28 0-1.28-1.28-2.56 0-1.28-1.28-1.28-1.28-2.56 0 0 0-1.28-1.28-1.28-1.28-1.28-2.56-2.56-3.84-3.84l-102.4-102.4c-10.24-10.24-25.6-10.24-35.84 0-10.24 10.24-10.24 25.6 0 35.84l58.88 58.88-128 0-409.6 409.6L128 691.2c-14.08 0-25.6 11.52-25.6 25.6s11.52 25.6 25.6 25.6l189.44 0 409.6-409.6 106.24 0-58.88 58.88c-10.24 10.24-10.24 25.6 0 35.84C780.8 432.64 787.2 435.2 793.6 435.2s12.8-2.56 17.92-7.68l102.4-102.4c1.28-1.28 2.56-2.56 3.84-3.84 0 0 1.28-1.28 1.28-1.28 0-1.28 1.28-1.28 1.28-2.56 0-1.28 0-1.28 1.28-2.56 0-1.28 0-1.28 1.28-2.56 1.28-3.84 1.28-6.4 0-10.24C920.32 300.8 920.32 300.8 920.32 299.52zM919.04 727.04c0-1.28 0-1.28 1.28-2.56 0-1.28 0-1.28 1.28-2.56 1.28-3.84 1.28-6.4 0-10.24 0-1.28 0-1.28-1.28-2.56 0-1.28 0-1.28-1.28-2.56 0-1.28-1.28-1.28-1.28-2.56 0 0 0-1.28-1.28-1.28-1.28-1.28-2.56-2.56-3.84-3.84l-102.4-102.4c-10.24-10.24-25.6-10.24-35.84 0-10.24 10.24-10.24 25.6 0 35.84l58.88 58.88-106.24 0-120.32-120.32c-10.24-10.24-25.6-10.24-35.84 0-10.24 10.24-10.24 25.6 0 35.84L706.56 742.4l128 0-58.88 58.88c-10.24 10.24-10.24 25.6 0 35.84C780.8 842.24 787.2 844.8 793.6 844.8s12.8-2.56 17.92-7.68l102.4-102.4c1.28-1.28 2.56-2.56 3.84-3.84 0 0 1.28-1.28 1.28-1.28C919.04 728.32 919.04 727.04 919.04 727.04zM128 332.8l168.96 0 120.32 120.32C422.4 458.24 428.8 460.8 435.2 460.8s12.8-2.56 17.92-7.68c10.24-10.24 10.24-25.6 0-35.84L317.44 281.6 128 281.6c-14.08 0-25.6 11.52-25.6 25.6S113.92 332.8 128 332.8z" fill="#ecf0f1"></path></g></g></svg>