<?xml version="1.0" standalone="no"?><!DOCTYPE svg PUBLIC "-//W3C//DTD SVG 1.1//EN" "http://www.w3.org/Graphics/SVG/1.1/DTD/svg11.dtd"><svg width="206.4453125" height="200" viewBox="0 0 206.4453125 200" version="1.1" xmlns="http://www.w3.org/2000/svg" xmlns:xlink="http://www.w3.org/1999/xlink"><defs><style type="text/css"><![CDATA[
@font-face { font-family: ifont; src: url(http://at.alicdn.com/t/font_1442373896_4754455.eot?#iefix) format(embedded-opentype), url(http://at.alicdn.com/t/font_1442373896_4754455.woff) format(woff), url(http://at.alicdn.com/t/font_1442373896_4754455.ttf) format(truetype), url(http://at.alicdn.com/t/font_1442373896_4754455.svg#ifont) format(svg); }

]]></style></defs><g class="transform-group"><g transform="scale(0.1953125, 0.1953125)"><path d="M542.116775 979.885775c-62.271112 0-122.689308-12.200162-179.576175-36.260862-54.937317-23.236974-104.271792-56.49752-146.633674-98.859401-42.361882-42.360943-75.622427-91.695418-98.859401-146.633674-24.060701-56.886867-36.260862-117.305063-36.260862-179.576175 0-62.271112 12.200162-122.689308 36.260862-179.576175 23.236974-54.937317 56.49752-104.271792 98.859401-146.633674s91.696356-75.622427 146.633674-98.859401c56.886867-24.060701 117.305063-36.260862 179.576175-36.260862S664.805145 69.425712 721.69295 93.486413c54.937317 23.236974 104.27273 56.49752 146.633674 98.859401 42.361882 42.361882 75.622427 91.696356 98.859401 146.633674 24.060701 56.886867 36.260862 117.305063 36.260862 179.576175 0 62.271112-12.200162 122.689308-36.260862 179.576175-23.236974 54.938256-56.49752 104.27273-98.859401 146.633674-42.360943 42.361882-91.696356 75.622427-146.633674 98.859401C664.805145 967.686551 604.387887 979.885775 542.116775 979.885775zM542.116775 94.752963c-233.686013 0-423.803638 190.117625-423.803638 423.803638 0 233.685075 190.117625 423.8027 423.803638 423.8027S965.919475 752.241676 965.919475 518.555663C965.919475 284.86965 775.802788 94.752963 542.116775 94.752963zM558.769564 464.561222 558.769564 167.927665c0-10.363195-8.400511-18.763706-18.763706-18.763706s-18.763706 8.400511-18.763706 18.763706l0 296.633557c-21.85878 7.728771-37.524598 28.565866-37.524598 53.072205 0 8.207245 1.771294 15.99606 4.929226 23.027759L368.340462 660.965626c-7.327227 7.327227-7.328165 19.208406 0 26.535633 7.328165 7.328165 19.208406 7.328165 26.536572 0l119.671166-119.671166c7.647149 3.885964 16.292526 6.090699 25.457659 6.090699 31.08677 0 56.288304-25.201534 56.288304-56.288304C596.294162 493.127088 580.628344 472.289992 558.769564 464.561222z" fill="#56abe4"></path></g></g></svg>