<?xml version="1.0" standalone="no"?><!DOCTYPE svg PUBLIC "-//W3C//DTD SVG 1.1//EN" "http://www.w3.org/Graphics/SVG/1.1/DTD/svg11.dtd"><svg width="200" height="200" viewBox="0 0 200 200" version="1.1" xmlns="http://www.w3.org/2000/svg" xmlns:xlink="http://www.w3.org/1999/xlink"><defs><style type="text/css"><![CDATA[
@font-face { font-family: ifont; src: url(http://at.alicdn.com/t/font_1442373896_4754455.eot?#iefix) format(embedded-opentype), url(http://at.alicdn.com/t/font_1442373896_4754455.woff) format(woff), url(http://at.alicdn.com/t/font_1442373896_4754455.ttf) format(truetype), url(http://at.alicdn.com/t/font_1442373896_4754455.svg#ifont) format(svg); }

]]></style></defs><g class="transform-group"><g transform="scale(0.1953125, 0.1953125)"><path d="M519.447683 991.580381c-269.006475 0-487.073801-218.071303-487.073801-487.076784 0-269.006475 218.066332-487.072807 487.073801-487.072807 269.001504 0 487.073801 218.064343 487.073801 487.072807C1006.521484 773.499135 788.449187 991.580381 519.447683 991.580381L519.447683 991.580381zM519.447683 47.87079c-252.18717 0-456.633802 204.439672-456.633802 456.632807 0 252.183193 204.446632 456.634796 456.633802 456.634796 252.184187 0 456.631813-204.451603 456.631813-456.634796C976.079496 252.310461 771.63187 47.87079 519.447683 47.87079L519.447683 47.87079zM685.264399 787.550355c-3.030577 0-6.080046-0.715884-8.89884-2.162567l-157.235052-81.668486-169.919131 81.919045c-6.581165 3.204577-14.321664 2.394235-20.113368-2.046236-5.791703-4.419592-8.589618-11.716641-7.256283-18.876479l34.859591-186.462025-121.604891-130.290954c-4.767591-5.114596-6.389268-12.411645-4.266472-19.070364 2.142682-6.659713 7.701723-11.658972 14.573218-13.029095l169.417018-34.050244 90.855669-150.268105c3.53269-5.752926 9.786736-10.114849 16.522015-10.114849 0.155108 0 0.310217 0 0.464331 0 6.890387 0 13.202101 4.864037 16.483237 10.925191l86.958076 160.382955 166.153778 22.719386c6.929164 0.926673 12.817313 5.655486 15.38356 12.159097 2.568235 6.505599 1.390009 13.936877-3.009697 19.341804l-98.924282 120.949658c-6.77505 8.280396-18.897359 9.458622-27.158863 2.741241-8.26051-6.774056-9.476519-18.897359-2.741241-27.138977l77.075889-94.215354L611.221076 430.107303c-6.100926-0.809347-11.44719-4.497146-14.380327-9.901078l-75.608326-139.073463-77.806688 127.975267c-2.8178 4.613477-7.411392 7.835951-12.681096 8.897846L286.92347 446.920643l104.676214 112.127377c4.189912 4.478254 5.9836 10.692528 4.866025 16.716894l-29.650538 158.549495 144.266608-69.567057c5.501372-2.644795 11.888652-2.567241 17.294573 0.25056l117.975755 61.304559-70.434073-164.841323c-4.188918-9.805627 0.385782-21.136486 10.171524-25.344295 9.709182-4.189912 21.136486 0.348994 25.343301 10.172518l91.58945 214.351687c3.204577 7.48994 1.33234 16.195889-4.632368 21.73405C694.741912 785.792461 690.012104 787.550355 685.264399 787.550355L685.264399 787.550355zM465.238334 548.257057c-5.250813 0-10.501626-2.122796-14.303767-6.350491l-43.796215-48.330149c-7.160832-7.897597-6.563268-20.114362 1.351232-27.276189 7.894614-7.160832 20.094476-6.544376 27.255309 1.351232l43.796215 48.352023c7.160832 7.895608 6.564262 20.094476-1.350237 27.255309C474.501082 546.598592 469.869708 548.257057 465.238334 548.257057L465.238334 548.257057z" fill="#ecf0f1"></path></g></g></svg>