<?xml version="1.0" standalone="no"?><!DOCTYPE svg PUBLIC "-//W3C//DTD SVG 1.1//EN" "http://www.w3.org/Graphics/SVG/1.1/DTD/svg11.dtd"><svg width="200" height="200" viewBox="0 0 200 200" version="1.1" xmlns="http://www.w3.org/2000/svg" xmlns:xlink="http://www.w3.org/1999/xlink"><defs><style type="text/css"><![CDATA[
@font-face { font-family: ifont; src: url(http://at.alicdn.com/t/font_1442373896_4754455.eot?#iefix) format(embedded-opentype), url(http://at.alicdn.com/t/font_1442373896_4754455.woff) format(woff), url(http://at.alicdn.com/t/font_1442373896_4754455.ttf) format(truetype), url(http://at.alicdn.com/t/font_1442373896_4754455.svg#ifont) format(svg); }

]]></style></defs><g class="transform-group"><g transform="scale(0.1953125, 0.1953125)"><path d="M829.671 330.137c-48.578-48.578-113.165-75.331-181.863-75.331L377.889 254.806l0-51.632c0-16.49-11.334-22.662-25.186-13.716L228.44 269.713c-13.852 8.945-13.717 23.371 0.301 32.055l123.662 76.61c14.018 8.684 25.486 2.298 25.486-14.192l0-51.379 269.918 0c109.836 0 199.193 89.358 199.193 199.193 0 18.161-2.438 36.146-7.246 53.454-4.287 15.432 4.747 31.417 20.179 35.704 2.597 0.722 5.209 1.066 7.779 1.066 12.701 0 24.359-8.41 27.925-21.245 6.213-22.363 9.363-45.571 9.363-68.979C905.001 443.301 878.248 378.714 829.671 330.137zM781.787 722.232l-123.662-76.61c-14.018-8.684-25.486-2.298-25.486 14.192l0 51.379L341.194 711.193c-109.835 0-199.193-89.357-199.193-199.193 0-38.488 10.988-75.828 31.775-107.982 8.696-13.45 4.841-31.403-8.608-40.098-13.451-8.697-31.403-4.841-40.099 8.609C98.202 414.086 84.001 462.314 84.001 512c0 68.698 26.753 133.285 75.33 181.863 48.578 48.577 113.165 75.33 181.863 75.33l291.444 0 0 51.632c0 16.49 11.334 22.662 25.186 13.716l124.264-80.254C795.939 745.342 795.805 730.916 781.787 722.232z" fill="#ecf0f1"></path></g></g></svg>