<?xml version="1.0" standalone="no"?><!DOCTYPE svg PUBLIC "-//W3C//DTD SVG 1.1//EN" "http://www.w3.org/Graphics/SVG/1.1/DTD/svg11.dtd"><svg width="200" height="200" viewBox="0 0 200 200" version="1.1" xmlns="http://www.w3.org/2000/svg" xmlns:xlink="http://www.w3.org/1999/xlink"><defs><style type="text/css"><![CDATA[
@font-face { font-family: ifont; src: url(http://at.alicdn.com/t/font_1442373896_4754455.eot?#iefix) format(embedded-opentype), url(http://at.alicdn.com/t/font_1442373896_4754455.woff) format(woff), url(http://at.alicdn.com/t/font_1442373896_4754455.ttf) format(truetype), url(http://at.alicdn.com/t/font_1442373896_4754455.svg#ifont) format(svg); }

]]></style></defs><g class="transform-group"><g transform="scale(0.1953125, 0.1953125)"><path d="M740.5967 162.5743c33.9282 0 61.698 34.1053 61.698 75.7924v547.971072c0 41.686-27.7699 75.7821-61.698 75.7821h-30.839808c-33.9292 0-61.6929-34.0961-61.6929-75.7821V238.36672000000002c0-41.687 27.7637-75.7924 61.6929-75.7924H740.596736zM314.2922 162.5743c33.9313 0 61.696 34.1053 61.696 75.7924v547.971072c0 41.686-27.7658 75.7821-61.696 75.7821H283.45651200000003c-33.9343 0-61.698-34.0961-61.698-75.7821V238.36672000000002c0-41.687 27.7637-75.7924 61.698-75.7924H314.29222400000003z" fill="#ecf0f1"></path></g></g></svg>