<?xml version="1.0" standalone="no"?><!DOCTYPE svg PUBLIC "-//W3C//DTD SVG 1.1//EN" "http://www.w3.org/Graphics/SVG/1.1/DTD/svg11.dtd"><svg width="200" height="200" viewBox="0 0 200 200" version="1.1" xmlns="http://www.w3.org/2000/svg" xmlns:xlink="http://www.w3.org/1999/xlink"><defs><style type="text/css"><![CDATA[
@font-face { font-family: ifont; src: url(http://at.alicdn.com/t/font_1442373896_4754455.eot?#iefix) format(embedded-opentype), url(http://at.alicdn.com/t/font_1442373896_4754455.woff) format(woff), url(http://at.alicdn.com/t/font_1442373896_4754455.ttf) format(truetype), url(http://at.alicdn.com/t/font_1442373896_4754455.svg#ifont) format(svg); }

]]></style></defs><g class="transform-group"><g transform="scale(0.1953125, 0.1953125)"><path d="M262.598408 809.566932l32.231857 0c15.203706 0 27.4883-12.284594 27.4883-27.4883L322.318565 559.861266c3.162371 2.554223 6.568001 5.108445 10.46015 7.419408l378.024944 234.137071c42.813636 26.515263 77.842974 7.05452 77.842974-43.421784L788.646633 266.004038c0-50.354674-34.664449-69.207269-76.991567-41.962228L331.805678 469.368809c-3.40563 2.189334-6.568001 4.621927-9.487112 7.05452L322.318565 242.772776c0-15.203706-12.284594-27.4883-27.4883-27.4883L262.598408 215.284476C247.394702 215.284476 235.110108 227.56907 235.110108 242.772776L235.110108 782.078632C235.110108 797.282338 247.394702 809.566932 262.598408 809.566932L262.598408 809.566932 262.598408 809.566932z" fill="#ecf0f1"></path></g></g></svg>